<?xml version="1.0" standalone="no"?>
<!DOCTYPE svg PUBLIC "-//W3C//DTD SVG 1.1//EN" "http://www.w3.org/Graphics/SVG/1.1/DTD/svg11.dtd" >
<svg xmlns="http://www.w3.org/2000/svg" xmlns:xlink="http://www.w3.org/1999/xlink" version="1.1">
<metadata>
Created by FontForge 20201107 at Tue May  2 09:30:58 2023
 By 
Copyright (c) 2023 by Vladimir Nikolic. All rights reserved.
</metadata>
<defs>
<font id="Remscheid-Regular" horiz-adv-x="837" >
  <font-face 
    font-family="Remscheid"
    font-weight="400"
    font-stretch="normal"
    units-per-em="1000"
    panose-1="0 0 0 0 0 0 0 0 0 0"
    ascent="750"
    descent="-250"
    x-height="698"
    cap-height="698"
    bbox="-39 -125 1573 701"
    underline-thickness="50"
    underline-position="-100"
    unicode-range="U+0020-007A"
  />
<missing-glyph horiz-adv-x="271" 
 />
    <glyph glyph-name=".notdef" horiz-adv-x="271" 
 />
    <glyph glyph-name=".null" horiz-adv-x="0" 
 />
    <glyph glyph-name="nonmarkingreturn" horiz-adv-x="271" 
 />
    <glyph glyph-name="space" unicode=" " horiz-adv-x="271" 
 />
    <glyph glyph-name="exclam" unicode="!" horiz-adv-x="316" 
d="M70 698h156v-486h-156v486zM70 151h156v-151h-156v151z" />
    <glyph glyph-name="quotedbl" unicode="&#x22;" horiz-adv-x="460" 
d="M37 698h156v-283h-156v283zM252 698h156v-283h-156v283z" />
    <glyph glyph-name="quotesingle" unicode="'" horiz-adv-x="245" 
d="M37 698h156v-283h-156v283z" />
    <glyph glyph-name="comma" unicode="," horiz-adv-x="202" 
d="M17 151h156v-244h-156v244z" />
    <glyph glyph-name="period" unicode="." horiz-adv-x="200" 
d="M16 151h156v-151h-156v151z" />
    <glyph glyph-name="zero" unicode="0" 
d="M12 409q0 56 15.5 109t46 93.5t76 64.5t105.5 23h342q60 1 105.5 -23t76 -64.5t46 -93.5t15.5 -109v-120q0 -54 -14 -105.5t-42 -92.5t-68.5 -66t-93.5 -25h-392q-53 0 -93.5 25t-68.5 66t-42 92.5t-14 105.5v120zM586 157q42 1 70.5 31t28.5 73v177q0 21 -7.5 39.5
t-21 33t-31.5 23t-39 8.5h-320q-21 0 -39 -8.5t-31.5 -23t-21 -33t-7.5 -39.5v-177q0 -43 28.5 -73t70.5 -31h320z" />
    <glyph glyph-name="one" unicode="1" 
d="M369 546h-95v152h250v-698h-155v546z" />
    <glyph glyph-name="two" unicode="2" 
d="M46 0v210q1 58 26.5 105.5t76 79t123.5 31.5h304q14 0 28.5 3.5t26.5 10t19.5 17t7.5 25.5q0 36 -19 50t-64 14h-523v152h527q50 0 92.5 -13.5t74 -40.5t49.5 -67t18 -93q0 -52 -18.5 -91.5t-50.5 -66.5t-74 -40.5t-90 -13.5h-296q-12 0 -25.5 -3.5t-25 -10t-19.5 -17
t-8 -24.5v-65h605v-152h-765z" />
    <glyph glyph-name="three" unicode="3" 
d="M629 481q-1 35 -17.5 50t-61.5 15h-509v152h519q78 0 129 -31.5t76 -79t24 -102.5t-26 -102q-7 -13 -16 -25q22 -22 36 -52q18 -40 18 -92q0 -53 -18 -93t-49.5 -67t-74 -40.5t-92.5 -13.5h-527v152h523q45 0 64 14t19 50q0 15 -7.5 25.5t-19.5 17t-26.5 10t-28.5 3.5
h-327v154h320q9 1 20 4q13 3 24.5 9.5t19.5 17t8 24.5z" />
    <glyph glyph-name="four" unicode="4" 
d="M635 0v224h-377q-63 0 -106.5 19t-70.5 52t-39 77q-6 23 -10 90l-1 236h153v-237q0 -41 19.5 -62t70.5 -21h361v320h154v-698h-154z" />
    <glyph glyph-name="five" unicode="5" 
d="M47 698h765v-152h-605v-120h374q48 0 90 -13.5t74 -40.5t50.5 -66.5t18.5 -91.5q0 -53 -18 -93t-49.5 -67t-74 -40.5t-92.5 -13.5h-527v152h523q45 0 64 14t19 50q0 15 -7.5 25.5t-19.5 17t-26.5 10t-28.5 3.5l-530 -2v428z" />
    <glyph glyph-name="six" unicode="6" 
d="M307 544q-51 0 -70.5 -21t-19.5 -62v-8h379q63 0 106.5 -19t70.5 -52t39 -77.5t12 -75.5q0 -52 -16.5 -94.5t-46.5 -72.5t-71.5 -46t-90.5 -16h-311q-49 0 -90.5 16t-71.5 46t-47 73q-15 41 -17 92l1 226q0 52 12 96.5t39 77.5t70.5 52t106.5 19h432v-154h-416zM217 299
v-71q1 -22 6 -36q6 -17 17.5 -26t28.5 -11.5t39 -2.5h271q22 0 39 2.5t28.5 11.5t17.5 26t6 45q0 20 -19.5 41t-70.5 21h-363z" />
    <glyph glyph-name="seven" unicode="7" 
d="M703 698v-156l-303 -542h-178l302 542h-404v156h583z" />
    <glyph glyph-name="eight" unicode="8" 
d="M581 698q78 0 129 -31.5t76 -79t24 -102.5t-26 -102q-7 -13 -16 -25q22 -22 36 -52q18 -40 18 -92q0 -53 -18 -93t-49.5 -67t-74 -40.5t-92.5 -13.5h-320q-50 0 -92.5 13.5t-74 40.5t-49.5 67t-18 93q0 52 18 92q14 30 36 52q-9 12 -16 25q-25 47 -26 102t24 102.5t76 79
t129 31.5h306zM584 152q45 0 64 14t19 50q0 15 -7.5 25.5t-19.5 17t-26.5 10t-28.5 3.5h-314q-14 0 -28.5 -3.5t-26.5 -10t-19.5 -17t-7.5 -25.5q0 -36 19 -50t64 -14h312zM206 481q0 -14 8 -24.5t19.5 -17t24.5 -9.5q11 -3 20 -4h300q9 1 20 4q13 3 24.5 9.5t19.5 17
t8 24.5q-1 35 -17.5 50t-61.5 15h-286q-45 0 -61.5 -15t-17.5 -50z" />
    <glyph glyph-name="nine" unicode="9" 
d="M641 399v71q-1 22 -6 36q-6 17 -17.5 26t-28.5 11.5t-39 2.5h-271q-22 0 -39 -2.5t-28.5 -11.5t-17.5 -26t-6 -45q0 -20 19.5 -41t70.5 -21h363zM551 154q51 0 70.5 21t19.5 62v8h-379q-63 0 -106.5 19t-70.5 52t-39 77.5t-12 75.5q0 52 16.5 94.5t46.5 72.5t71.5 46
t90.5 16h311q49 0 90.5 -16t71.5 -46t47 -73q15 -41 17 -92l-1 -226q0 -52 -12 -96.5t-39 -77.5t-70.5 -52t-106.5 -19h-465v154h449z" />
    <glyph glyph-name="colon" unicode=":" horiz-adv-x="252" 
d="M42 151h156v-151h-156v151zM42 698h156v-151h-156v151z" />
    <glyph glyph-name="semicolon" unicode=";" horiz-adv-x="257" 
d="M44 151h156v-248h-156v248zM44 698h156v-151h-156v151z" />
    <glyph glyph-name="question" unicode="?" horiz-adv-x="840" 
d="M42 190v20q1 58 26.5 105.5t76 79t123.5 31.5h304q14 0 28.5 3.5t26.5 10t19.5 17t7.5 25.5q0 36 -19 50t-64 14h-523v152h527q50 0 92.5 -13.5t74 -40.5t49.5 -67t18 -93q0 -52 -18.5 -91.5t-50.5 -66.5t-74 -40.5t-90 -13.5h-296q-12 0 -25.5 -3.5t-25 -10t-19.5 -17
t-8 -24.5v-27h-160zM44 151h156v-151h-156v151z" />
    <glyph glyph-name="A" unicode="A" horiz-adv-x="955" 
d="M597 698q75 1 127 -20.5t84.5 -60.5t47.5 -92.5t15 -115.5v-410h-155v199h-510v-199h-154v410q0 145 62.5 217t205.5 72h277zM716 437q0 43 -28.5 72.5t-70.5 31.5h-311q-42 -4 -71 -28.5t-29 -74.5v-84h510v83z" />
    <glyph glyph-name="B" unicode="B" horiz-adv-x="924" 
d="M706 479q0 40 -23.5 53.5t-58.5 13.5h-563v153h556q55 0 100 -13.5t77 -41.5t49.5 -69.5t17.5 -98.5q0 -38 -15.5 -68.5t-44.5 -58.5q32 -30 46 -61t14 -76q0 -60 -17.5 -100.5t-49.5 -65.5t-77.5 -35.5t-101.5 -10.5h-554v462h148v-46h427q28 0 49 17t21 46zM632 153
q29 0 52 14t24 46q1 30 -18 48t-60 18h-421v-126h423z" />
    <glyph glyph-name="C" unicode="C" horiz-adv-x="870" 
d="M397 543q-44 0 -82 -3t-66 -18t-43.5 -46t-15.5 -86v-178q0 -18 7 -29t18 -18t25 -9.5t29 -2.5h557v-153h-557q-49 0 -91.5 13.5t-74 39.5t-50 65.5t-18.5 92.5v209q0 88 22.5 142.5t65 84.5t103.5 40.5t138 10.5q103 0 204.5 -8t203.5 -22v-241h-158v105q-54 5 -108.5 8
t-108.5 3z" />
    <glyph glyph-name="D" unicode="D" horiz-adv-x="960" 
d="M754 343q0 62 -32 101.5t-80.5 62t-106.5 31t-109 8.5h-203v-393h463q23 0 40.5 18.5t24.5 38.5q3 15 3 38v95zM426 699q89 0 175.5 -18.5t154.5 -60.5t110 -110t42 -167v-110q0 -111 -58.5 -172t-163.5 -61h-616v699h356z" />
    <glyph glyph-name="E" unicode="E" horiz-adv-x="827" 
d="M515 408v-156l-300 -1v-98h573v-153h-728v472q0 65 26.5 108.5t69.5 70t97 37.5t108 11q100 0 198 -7t197 -15v-157q-97 5 -194 11.5t-194 6.5q-37 0 -65 -5.5t-47 -20t-29.5 -40t-13.5 -65.5z" />
    <glyph glyph-name="F" unicode="F" horiz-adv-x="687" 
d="M547 398v-156h-344v-242h-153v419q0 77 29.5 130.5t78.5 86.5t112.5 47.5t131.5 14.5q62 0 124 -4t124 -7v-154q-58 2 -116 5.5t-116 3.5q-46 0 -85.5 -7.5t-69 -24t-45.5 -44.5t-15 -68h344z" />
    <glyph glyph-name="G" unicode="G" horiz-adv-x="805" 
d="M716 0h-445q-49 0 -91.5 15t-74 42.5t-49.5 66.5t-18 87v233q0 96 40 154t131 88q16 6 36 8.5t41 3t41 0.5h38q42 0 89 -4t95 -10t95 -13.5t89 -14.5v-152q-82 11 -166 25t-168 14q-46 0 -84 -3.5t-65 -19t-42 -47t-15 -86.5v-174q0 -21 5.5 -33t16 -18t25 -7.5
t31.5 -1.5h290v95h-181v154l336 1v-403z" />
    <glyph glyph-name="H" unicode="H" horiz-adv-x="851" 
d="M600 699h155v-699h-155v252h-374v-252h-156v699h156v-290h374v290z" />
    <glyph glyph-name="I" unicode="I" horiz-adv-x="321" 
d="M70 698h156v-698h-156v698z" />
    <glyph glyph-name="J" unicode="J" horiz-adv-x="437" 
d="M196 698h156v-487q-7 -100 -65.5 -155.5t-168.5 -55.5h-121v153h121q67 1 78 43v502z" />
    <glyph glyph-name="K" unicode="K" horiz-adv-x="1017" 
d="M1030 699l-588 -363l554 -337l-303 1l-397 246l-77 -48v-198h-154v699h154v-316l516 316h295z" />
    <glyph glyph-name="L" unicode="L" horiz-adv-x="650" 
d="M220 153h395v-153l-550 1v697h155v-545z" />
    <glyph glyph-name="M" unicode="M" horiz-adv-x="1247" 
d="M375 522l-242 -522h-172l325 699h173l147 -279l147 279h173l325 -699h-172l-242 522l-143 -269h-177z" />
    <glyph glyph-name="N" unicode="N" horiz-adv-x="961" 
d="M70 0v698h209l430 -542v542h155v-698h-235l-405 512v-512h-154z" />
    <glyph glyph-name="O" unicode="O" horiz-adv-x="915" 
d="M26 409q0 56 15.5 109t46 93.5t76 64.5t105.5 23h342q60 1 105.5 -23t76 -64.5t46 -93.5t15.5 -109v-120q0 -54 -14 -105.5t-42 -92.5t-68.5 -66t-93.5 -25h-392q-53 0 -93.5 25t-68.5 66t-42 92.5t-14 105.5v120zM600 157q42 1 70.5 31t28.5 73v177q0 21 -7.5 39.5
t-21 33t-31.5 23t-39 8.5h-320q-21 0 -39 -8.5t-31.5 -23t-21 -33t-7.5 -39.5v-177q0 -43 28.5 -73t70.5 -31h320z" />
    <glyph glyph-name="P" unicode="P" horiz-adv-x="851" 
d="M59 0v469h154v-91h361q51 0 70.5 21t19.5 62q0 28 -6 45t-17.5 26t-28.5 11.5t-39 2.5h-514v152h534q49 0 90.5 -16t71.5 -46t46.5 -72.5t16.5 -94.5t-12 -96.5t-39 -77.5t-70.5 -52t-106.5 -19h-377v-224h-154z" />
    <glyph glyph-name="Q" unicode="Q" horiz-adv-x="915" 
d="M26 409q0 56 15.5 109t46 93.5t76 64.5t105.5 23h342q60 1 105.5 -23t76 -64.5t46 -93.5t15.5 -109v-120q0 -54 -14 -105.5t-42 -92.5t-68.5 -66t-93.5 -25h-124v-125h-156v125h-112q-53 0 -93.5 25t-68.5 66t-42 92.5t-14 105.5v120zM600 157q42 1 70.5 31t28.5 73v177
q0 21 -7.5 39.5t-21 33t-31.5 23t-39 8.5h-320q-21 0 -39 -8.5t-31.5 -23t-21 -33t-7.5 -39.5v-177q0 -43 28.5 -73t70.5 -31h320z" />
    <glyph glyph-name="R" unicode="R" horiz-adv-x="887" 
d="M59 0v469h154v-91h361q51 0 70.5 21t19.5 62q0 28 -6 45t-17.5 26t-28.5 11.5t-39 2.5h-514v152h534q49 0 90.5 -16t71.5 -46t46.5 -72.5t16.5 -94.5q0 -42 -8 -80t-25.5 -69t-45.5 -53t-68 -33l199 -234h-219l-190 224h-248v-224h-154z" />
    <glyph glyph-name="S" unicode="S" horiz-adv-x="860" 
d="M643 217q0 14 -8 24.5t-19.5 17t-25 10t-25.5 3.5h-296q-48 0 -90 13.5t-74 40.5t-50.5 66.5t-18.5 91.5q0 53 18 93t49.5 67t74 40.5t92.5 13.5h527v-152h-523q-45 0 -64 -14t-19 -50q0 -15 7.5 -25.5t19.5 -17t26.5 -10t28.5 -3.5h304q73 0 123.5 -31.5t76 -79
t26.5 -102.5t-24 -102.5t-76 -79t-129 -31.5h-536v152h526q45 0 61.5 15t17.5 50z" />
    <glyph glyph-name="T" unicode="T" horiz-adv-x="646" 
d="M15 699h598v-154h-218v-545h-155v545h-225v154z" />
    <glyph glyph-name="U" unicode="U" horiz-adv-x="953" 
d="M327 0q-75 -1 -127 20.5t-84.5 60.5t-47.5 92.5t-15 115.5v409h155v-437q0 -43 28.5 -72.5t70.5 -31.5h311q42 4 71 28.5t29 74.5v438h154v-409q0 -145 -62.5 -217t-205.5 -72h-277z" />
    <glyph glyph-name="V" unicode="V" horiz-adv-x="1090" 
d="M537 157l381 542h190l-492 -699h-157l-493 699h190z" />
    <glyph glyph-name="W" unicode="W" horiz-adv-x="1545" 
d="M993 157l381 542h190l-492 -699h-157l-149 211l-149 -211h-157l-493 699h190l381 -542l133 189l-249 353h190l153 -219l154 219h190l-249 -354z" />
    <glyph glyph-name="X" unicode="X" horiz-adv-x="660" 
d="M646 0h-193l-131 200l-131 -200h-193l227 349l-227 349h193l131 -201l130 201h194l-227 -349z" />
    <glyph glyph-name="Y" unicode="Y" horiz-adv-x="931" 
d="M302 264q-75 -1 -127 20.5t-84.5 60.5t-47.5 92.5t-15 115.5v146h155v-174q0 -43 28.5 -72.5t70.5 -31.5h411v280l154 -1v-411q0 -145 -62.5 -217t-205.5 -72h-277l-1 157h292q42 4 71 28.5t29 74.5v4h-391z" />
    <glyph glyph-name="Z" unicode="Z" horiz-adv-x="723" 
d="M661 545l-400 -389h400v-156h-623l1 156l399 389h-403v156h626v-156z" />
    <glyph glyph-name="a" unicode="a" horiz-adv-x="958" 
d="M606 698q75 1 127 -20.5t84.5 -60.5t47.5 -92.5t15 -115.5v-410h-155v199h-510v-199h-154v410q0 145 62.5 217t205.5 72h277zM725 437q0 43 -28.5 72.5t-70.5 31.5h-311q-42 -4 -71 -28.5t-29 -74.5v-84h510v83z" />
    <glyph glyph-name="b" unicode="b" horiz-adv-x="928" 
d="M716 479q0 40 -23.5 53.5t-58.5 13.5h-563v153h556q55 0 100 -13.5t77 -41.5t49.5 -69.5t17.5 -98.5q0 -38 -15.5 -68.5t-44.5 -58.5q32 -30 46 -61t14 -76q0 -60 -17.5 -100.5t-49.5 -65.5t-77.5 -35.5t-101.5 -10.5h-554v462h148v-46h427q28 0 49 17t21 46zM642 153
q29 0 52 14t24 46q1 30 -18 48t-60 18h-421v-126h423z" />
    <glyph glyph-name="c" unicode="c" horiz-adv-x="874" 
d="M407 543q-44 0 -82 -3t-66 -18t-43.5 -46t-15.5 -86v-178q0 -18 7 -29t18 -18t25 -9.5t29 -2.5h557v-153h-557q-49 0 -91.5 13.5t-74 39.5t-50 65.5t-18.5 92.5v209q0 88 22.5 142.5t65 84.5t103.5 40.5t138 10.5q103 0 204.5 -8t203.5 -22v-241h-158v105q-54 5 -108.5 8
t-108.5 3z" />
    <glyph glyph-name="d" unicode="d" horiz-adv-x="964" 
d="M764 343q0 62 -32 101.5t-80.5 62t-106.5 31t-109 8.5h-203v-393h463q23 0 40.5 18.5t24.5 38.5q3 15 3 38v95zM436 699q89 0 175.5 -18.5t154.5 -60.5t110 -110t42 -167v-110q0 -111 -58.5 -172t-163.5 -61h-616v699h356z" />
    <glyph glyph-name="e" unicode="e" horiz-adv-x="830" 
d="M524 408v-156l-300 -1v-98h573v-153h-728v472q0 65 26.5 108.5t69.5 70t97 37.5t108 11q100 0 198 -7t197 -15v-157q-97 5 -194 11.5t-194 6.5q-37 0 -65 -5.5t-47 -20t-29.5 -40t-13.5 -65.5z" />
    <glyph glyph-name="f" unicode="f" horiz-adv-x="690" 
d="M556 398v-156h-344v-242h-153v419q0 77 29.5 130.5t78.5 86.5t112.5 47.5t131.5 14.5q62 0 124 -4t124 -7v-154q-58 2 -116 5.5t-116 3.5q-46 0 -85.5 -7.5t-69 -24t-45.5 -44.5t-15 -68h344z" />
    <glyph glyph-name="g" unicode="g" horiz-adv-x="809" 
d="M726 0h-445q-49 0 -91.5 15t-74 42.5t-49.5 66.5t-18 87v233q0 96 40 154t131 88q16 6 36 8.5t41 3t41 0.5h38q42 0 89 -4t95 -10t95 -13.5t89 -14.5v-152q-82 11 -166 25t-168 14q-46 0 -84 -3.5t-65 -19t-42 -47t-15 -86.5v-174q0 -21 5.5 -33t16 -18t25 -7.5
t31.5 -1.5h290v95h-181v154l336 1v-403z" />
    <glyph glyph-name="h" unicode="h" horiz-adv-x="855" 
d="M610 699h155v-699h-155v252h-374v-252h-156v699h156v-290h374v290z" />
    <glyph glyph-name="i" unicode="i" horiz-adv-x="325" 
d="M80 698h156v-698h-156v698z" />
    <glyph glyph-name="j" unicode="j" horiz-adv-x="441" 
d="M206 698h156v-487q-7 -100 -65.5 -155.5t-168.5 -55.5h-121v153h121q67 1 78 43v502z" />
    <glyph glyph-name="k" unicode="k" horiz-adv-x="1021" 
d="M1040 699l-588 -363l554 -337l-303 1l-397 246l-77 -48v-198h-154v699h154v-316l516 316h295z" />
    <glyph glyph-name="l" unicode="l" horiz-adv-x="655" 
d="M230 153h395v-153l-550 1v697h155v-545z" />
    <glyph glyph-name="m" unicode="m" horiz-adv-x="1251" 
d="M384 522l-242 -522h-172l325 699h173l147 -279l147 279h173l325 -699h-172l-242 522l-143 -269h-177z" />
    <glyph glyph-name="n" unicode="n" horiz-adv-x="965" 
d="M80 0v698h209l430 -542v542h155v-698h-235l-405 512v-512h-154z" />
    <glyph glyph-name="o" unicode="o" horiz-adv-x="919" 
d="M35 409q0 56 15.5 109t46 93.5t76 64.5t105.5 23h342q60 1 105.5 -23t76 -64.5t46 -93.5t15.5 -109v-120q0 -54 -14 -105.5t-42 -92.5t-68.5 -66t-93.5 -25h-392q-53 0 -93.5 25t-68.5 66t-42 92.5t-14 105.5v120zM609 157q42 1 70.5 31t28.5 73v177q0 21 -7.5 39.5
t-21 33t-31.5 23t-39 8.5h-320q-21 0 -39 -8.5t-31.5 -23t-21 -33t-7.5 -39.5v-177q0 -43 28.5 -73t70.5 -31h320z" />
    <glyph glyph-name="p" unicode="p" horiz-adv-x="855" 
d="M69 0v469h154v-91h361q51 0 70.5 21t19.5 62q0 28 -6 45t-17.5 26t-28.5 11.5t-39 2.5h-514v152h534q49 0 90.5 -16t71.5 -46t46.5 -72.5t16.5 -94.5t-12 -96.5t-39 -77.5t-70.5 -52t-106.5 -19h-377v-224h-154z" />
    <glyph glyph-name="q" unicode="q" horiz-adv-x="919" 
d="M35 409q0 56 15.5 109t46 93.5t76 64.5t105.5 23h342q60 1 105.5 -23t76 -64.5t46 -93.5t15.5 -109v-120q0 -54 -14 -105.5t-42 -92.5t-68.5 -66t-93.5 -25h-124v-125h-156v125h-112q-53 0 -93.5 25t-68.5 66t-42 92.5t-14 105.5v120zM609 157q42 1 70.5 31t28.5 73v177
q0 21 -7.5 39.5t-21 33t-31.5 23t-39 8.5h-320q-21 0 -39 -8.5t-31.5 -23t-21 -33t-7.5 -39.5v-177q0 -43 28.5 -73t70.5 -31h320z" />
    <glyph glyph-name="r" unicode="r" horiz-adv-x="891" 
d="M69 0v469h154v-91h361q51 0 70.5 21t19.5 62q0 28 -6 45t-17.5 26t-28.5 11.5t-39 2.5h-514v152h534q49 0 90.5 -16t71.5 -46t46.5 -72.5t16.5 -94.5q0 -42 -8 -80t-25.5 -69t-45.5 -53t-68 -33l199 -234h-219l-190 224h-248v-224h-154z" />
    <glyph glyph-name="s" unicode="s" horiz-adv-x="863" 
d="M652 217q0 14 -8 24.5t-19.5 17t-25 10t-25.5 3.5h-296q-48 0 -90 13.5t-74 40.5t-50.5 66.5t-18.5 91.5q0 53 18 93t49.5 67t74 40.5t92.5 13.5h527v-152h-523q-45 0 -64 -14t-19 -50q0 -15 7.5 -25.5t19.5 -17t26.5 -10t28.5 -3.5h304q73 0 123.5 -31.5t76 -79
t26.5 -102.5t-24 -102.5t-76 -79t-129 -31.5h-536v152h526q45 0 61.5 15t17.5 50z" />
    <glyph glyph-name="t" unicode="t" horiz-adv-x="651" 
d="M25 699h598v-154h-218v-545h-155v545h-225v154z" />
    <glyph glyph-name="u" unicode="u" horiz-adv-x="957" 
d="M337 0q-75 -1 -127 20.5t-84.5 60.5t-47.5 92.5t-15 115.5v409h155v-437q0 -43 28.5 -72.5t70.5 -31.5h311q42 4 71 28.5t29 74.5v438h154v-409q0 -145 -62.5 -217t-205.5 -72h-277z" />
    <glyph glyph-name="v" unicode="v" horiz-adv-x="1095" 
d="M547 157l381 542h190l-492 -699h-157l-493 699h190z" />
    <glyph glyph-name="w" unicode="w" horiz-adv-x="1549" 
d="M1002 157l381 542h190l-492 -699h-157l-149 211l-149 -211h-157l-493 699h190l381 -542l133 189l-249 353h190l153 -219l154 219h190l-249 -354z" />
    <glyph glyph-name="x" unicode="x" horiz-adv-x="664" 
d="M656 0h-193l-131 200l-131 -200h-193l227 349l-227 349h193l131 -201l130 201h194l-227 -349z" />
    <glyph glyph-name="y" unicode="y" horiz-adv-x="935" 
d="M311 264q-75 -1 -127 20.5t-84.5 60.5t-47.5 92.5t-15 115.5v146h155v-174q0 -43 28.5 -72.5t70.5 -31.5h411v280l154 -1v-411q0 -145 -62.5 -217t-205.5 -72h-277l-1 157h292q42 4 71 28.5t29 74.5v4h-391z" />
    <glyph glyph-name="z" unicode="z" horiz-adv-x="728" 
d="M671 545l-400 -389h400v-156h-623l1 156l399 389h-403v156h626v-156z" />
    <glyph glyph-name="NULL" horiz-adv-x="0" 
 />
    </font>
</defs>
</svg>
